<svg width="65" height="65" viewBox="0 0 65 65" fill="none" xmlns="http://www.w3.org/2000/svg">
<path d="M30.3967 3.13216C31.4005 1.63733 33.5995 1.63733 34.6033 3.13216L37.4917 7.4335C38.198 8.48531 39.5727 8.85366 40.7103 8.29592L45.3624 6.01506C46.9791 5.2224 48.8835 6.32189 49.0054 8.11835L49.3562 13.2876C49.442 14.5517 50.4483 15.558 51.7124 15.6438L56.8816 15.9946C58.6781 16.1165 59.7776 18.0209 58.9849 19.6376L56.7041 24.2897C56.1463 25.4273 56.5147 26.802 57.5665 27.5083L61.8678 30.3967C63.3627 31.4005 63.3627 33.5995 61.8678 34.6033L57.5665 37.4917C56.5147 38.198 56.1463 39.5727 56.7041 40.7103L58.9849 45.3624C59.7776 46.9791 58.6781 48.8835 56.8816 49.0054L51.7124 49.3562C50.4483 49.442 49.442 50.4483 49.3562 51.7124L49.0054 56.8816C48.8835 58.6781 46.9791 59.7776 45.3624 58.9849L40.7103 56.7041C39.5727 56.1463 38.198 56.5147 37.4917 57.5665L34.6033 61.8678C33.5995 63.3627 31.4005 63.3627 30.3967 61.8678L27.5083 57.5665C26.802 56.5147 25.4273 56.1463 24.2897 56.7041L19.6376 58.9849C18.0209 59.7776 16.1165 58.6781 15.9946 56.8816L15.6438 51.7124C15.558 50.4483 14.5517 49.442 13.2876 49.3562L8.11835 49.0054C6.32189 48.8835 5.2224 46.9791 6.01506 45.3624L8.29592 40.7103C8.85366 39.5727 8.48531 38.198 7.4335 37.4917L3.13216 34.6033C1.63733 33.5995 1.63733 31.4005 3.13216 30.3967L7.4335 27.5083C8.48531 26.802 8.85366 25.4273 8.29592 24.2897L6.01506 19.6376C5.2224 18.0209 6.32189 16.1165 8.11835 15.9946L13.2876 15.6438C14.5517 15.558 15.558 14.5517 15.6438 13.2876L15.9946 8.11835C16.1165 6.32189 18.0209 5.2224 19.6376 6.01506L24.2897 8.29592C25.4273 8.85366 26.802 8.48531 27.5083 7.4335L30.3967 3.13216Z" fill="#73E880"/>
<path d="M44.3327 23.5L28.7493 39.0833L21.666 32" stroke="white" stroke-width="2.83333" stroke-linecap="round" stroke-linejoin="round"/>
</svg>
